<svg xmlns="http://www.w3.org/2000/svg" viewBox="0 0 1600 748" preserveAspectRatio="xMidYMid" width="1600" height="748" xmlns:xlink="http://www.w3.org/1999/xlink" style="shape-rendering:auto;display:block;background-position-x:0%;background-position-y:0%;background-size:auto;background-origin:padding-box;background-clip:border-box;background:scroll rgba(0, 0, 0, 0) none  repeat;width:1600px;height:748px;;animation:none"><g style="transform:matrix(1, 0, 0, -1, 0, 748);;animation:none"><linearGradient id="lg-5z1ivifcnzb" x1="0" x2="1" y1="0" y2="0"><stop stop-color="#ac0dac" offset="0"></stop>

  
<stop stop-color="#c31616" offset="1"></stop></linearGradient>
<path d="M 0 0 L 0 385.78 Q 200 446.25 400 412.54 T 800 377.24 T 1200 354.2 T 1600 408.71 L 1600 0 Z" fill="url(#lg-5z1ivifcnzb)" opacity="0.4" style="fill:url('#lg-5z1ivifcnzb');opacity:0.4;;animation:none"></path>
<path d="M 0 0 L 0 379.557 Q 200 404.87 400 375.313 T 800 376.608 T 1200 358.032 T 1600 358.27 L 1600 0 Z" fill="url(#lg-5z1ivifcnzb)" opacity="0.4" style="fill:url('#lg-5z1ivifcnzb');opacity:0.4;;animation:none"></path>
<path d="M 0 0 L 0 389.117 Q 200 437.421 400 407.492 T 800 371.221 T 1200 415.81 T 1600 425.632 L 1600 0 Z" fill="url(#lg-5z1ivifcnzb)" opacity="0.4" style="fill:url('#lg-5z1ivifcnzb');opacity:0.4;;animation:none"></path>
<path d="M 0 0 L 0 396.834 Q 200 431.317 400 392.893 T 800 421.183 T 1200 372.465 T 1600 397.768 L 1600 0 Z" fill="url(#lg-5z1ivifcnzb)" opacity="0.4" style="fill:url('#lg-5z1ivifcnzb');opacity:0.4;;animation:none"></path>
<path d="M 0 0 L 0 405.027 Q 200 382.933 400 360.185 T 800 375.097 T 1200 408.657 T 1600 398.085 L 1600 0 Z" fill="url(#lg-5z1ivifcnzb)" opacity="0.4" style="fill:url('#lg-5z1ivifcnzb');opacity:0.4;;animation:none"></path>
<g></g></g><!-- [ldio] generated by https://loading.io --></svg>